<svg xmlns="http://www.w3.org/2000/svg" viewBox="0 0 512 512" width="512" height="512">
  <defs>
    <radialGradient id="body" cx="37%" cy="30%" r="68%" fx="37%" fy="30%">
      <stop offset="0%"   stop-color="#d6b896"/>
      <stop offset="35%"  stop-color="#a47551"/>
      <stop offset="75%"  stop-color="#6b3f1e"/>
      <stop offset="100%" stop-color="#3d1f0a"/>
    </radialGradient>
    <radialGradient id="rim" cx="50%" cy="50%" r="50%">
      <stop offset="70%" stop-color="rgba(0,0,0,0)"/>
      <stop offset="100%" stop-color="rgba(0,0,0,0.32)"/>
    </radialGradient>
    <radialGradient id="s1" cx="50%" cy="50%" r="50%">
      <stop offset="0%"   stop-color="rgba(255,255,255,0.90)"/>
      <stop offset="60%"  stop-color="rgba(255,255,255,0.30)"/>
      <stop offset="100%" stop-color="rgba(255,255,255,0)"/>
    </radialGradient>
    <radialGradient id="s2" cx="50%" cy="50%" r="50%">
      <stop offset="0%"   stop-color="rgba(255,255,255,0.70)"/>
      <stop offset="100%" stop-color="rgba(255,255,255,0)"/>
    </radialGradient>
    <clipPath id="clip"><circle cx="256" cy="256" r="210"/></clipPath>
  </defs>

  <circle cx="256" cy="256" r="210" fill="url(#body)"/>
  <circle cx="256" cy="256" r="210" fill="url(#rim)"/>

  <ellipse cx="183" cy="168" rx="66" ry="46" transform="rotate(-28 183 168)" fill="url(#s1)"/>
  <ellipse cx="160" cy="192" rx="22" ry="14" transform="rotate(-28 160 192)" fill="url(#s2)" opacity="0.65"/>

  <!-- fibrous grain lines -->
  <g clip-path="url(#clip)">
    <line x1="200" y1="46" x2="176" y2="466" stroke="rgba(61,31,10,0.13)" stroke-width="3.5"/>
    <line x1="228" y1="46" x2="210" y2="466" stroke="rgba(61,31,10,0.13)" stroke-width="3.5"/>
    <line x1="256" y1="46" x2="256" y2="466" stroke="rgba(61,31,10,0.13)" stroke-width="3.5"/>
    <line x1="284" y1="46" x2="302" y2="466" stroke="rgba(61,31,10,0.13)" stroke-width="3.5"/>
    <line x1="312" y1="46" x2="336" y2="466" stroke="rgba(61,31,10,0.13)" stroke-width="3.5"/>
  </g>
  <!-- three characteristic coconut eye-dimples -->
  <circle cx="229" cy="122" r="22" fill="#2a0a00"/>
  <circle cx="283" cy="122" r="22" fill="#2a0a00"/>
  <circle cx="256" cy="88" r="22" fill="#2a0a00"/>
  <circle cx="235" cy="116" r="7" fill="rgba(255,255,255,0.30)"/>
  <circle cx="289" cy="116" r="7" fill="rgba(255,255,255,0.30)"/>
  <circle cx="262" cy="82"  r="7" fill="rgba(255,255,255,0.30)"/>
  <circle cx="210" cy="286" r="22" fill="#2a0e00"/>
  <circle cx="217" cy="278" r="8" fill="white"/>
  <circle cx="302" cy="286" r="22" fill="#2a0e00"/>
  <circle cx="309" cy="278" r="8" fill="white"/>
  <path d="M 220 322 Q 256 352 292 322" stroke="#2a0e00" stroke-width="9" fill="none" stroke-linecap="round"/>

</svg>