<svg xmlns="http://www.w3.org/2000/svg" viewBox="0 0 512 512" width="512" height="512">
  <defs>
    <radialGradient id="body" cx="37%" cy="30%" r="68%" fx="37%" fy="30%">
      <stop offset="0%"   stop-color="#fbcfe8"/>
      <stop offset="35%"  stop-color="#ec4899"/>
      <stop offset="75%"  stop-color="#be185d"/>
      <stop offset="100%" stop-color="#831843"/>
    </radialGradient>
    <radialGradient id="rim" cx="50%" cy="50%" r="50%">
      <stop offset="70%" stop-color="rgba(0,0,0,0)"/>
      <stop offset="100%" stop-color="rgba(0,0,0,0.32)"/>
    </radialGradient>
    <radialGradient id="s1" cx="50%" cy="50%" r="50%">
      <stop offset="0%"   stop-color="rgba(255,255,255,0.90)"/>
      <stop offset="60%"  stop-color="rgba(255,255,255,0.30)"/>
      <stop offset="100%" stop-color="rgba(255,255,255,0)"/>
    </radialGradient>
    <radialGradient id="s2" cx="50%" cy="50%" r="50%">
      <stop offset="0%"   stop-color="rgba(255,255,255,0.70)"/>
      <stop offset="100%" stop-color="rgba(255,255,255,0)"/>
    </radialGradient>
    <clipPath id="clip"><circle cx="256" cy="256" r="210"/></clipPath>
  </defs>

  <circle cx="256" cy="256" r="210" fill="url(#body)"/>
  <circle cx="256" cy="256" r="210" fill="url(#rim)"/>

  <ellipse cx="183" cy="168" rx="66" ry="46" transform="rotate(-28 183 168)" fill="url(#s1)"/>
  <ellipse cx="160" cy="192" rx="22" ry="14" transform="rotate(-28 160 192)" fill="url(#s2)" opacity="0.65"/>

  <!-- scale/fin shapes around equator -->
  <g>
    <ellipse cx="46"  cy="256" rx="14" ry="26" fill="#15803d"/>
    <ellipse cx="76"  cy="160" rx="14" ry="26" transform="rotate(30 76 160)" fill="#15803d"/>
    <ellipse cx="160" cy="76"  rx="14" ry="26" transform="rotate(60 160 76)"  fill="#15803d"/>
    <ellipse cx="256" cy="46"  rx="14" ry="26" transform="rotate(90 256 46)"  fill="#15803d"/>
    <ellipse cx="352" cy="76"  rx="14" ry="26" transform="rotate(120 352 76)" fill="#15803d"/>
    <ellipse cx="436" cy="160" rx="14" ry="26" transform="rotate(150 436 160)" fill="#15803d"/>
    <ellipse cx="466" cy="256" rx="14" ry="26" fill="#15803d"/>
    <ellipse cx="436" cy="352" rx="14" ry="26" transform="rotate(30 436 352)" fill="#15803d"/>
    <ellipse cx="352" cy="436" rx="14" ry="26" transform="rotate(60 352 436)" fill="#15803d"/>
    <ellipse cx="256" cy="466" rx="14" ry="26" transform="rotate(90 256 466)" fill="#15803d"/>
    <ellipse cx="160" cy="436" rx="14" ry="26" transform="rotate(120 160 436)" fill="#15803d"/>
    <ellipse cx="76"  cy="352" rx="14" ry="26" transform="rotate(150 76 352)" fill="#15803d"/>
  </g>
  <circle cx="210" cy="286" r="22" fill="#4a0026"/>
  <circle cx="217" cy="278" r="8" fill="white"/>
  <circle cx="302" cy="286" r="22" fill="#4a0026"/>
  <circle cx="309" cy="278" r="8" fill="white"/>
  <path d="M 220 322 Q 256 352 292 322" stroke="#4a0026" stroke-width="9" fill="none" stroke-linecap="round"/>

</svg>