<svg xmlns="http://www.w3.org/2000/svg" viewBox="0 0 512 512" width="512" height="512">
  <defs>
    <radialGradient id="body" cx="37%" cy="30%" r="68%" fx="37%" fy="30%">
      <stop offset="0%"   stop-color="#e9d5ff"/>
      <stop offset="35%"  stop-color="#9333ea"/>
      <stop offset="75%"  stop-color="#6b21a8"/>
      <stop offset="100%" stop-color="#3b0764"/>
    </radialGradient>
    <radialGradient id="rim" cx="50%" cy="50%" r="50%">
      <stop offset="70%" stop-color="rgba(0,0,0,0)"/>
      <stop offset="100%" stop-color="rgba(0,0,0,0.32)"/>
    </radialGradient>
    <radialGradient id="s1" cx="50%" cy="50%" r="50%">
      <stop offset="0%"   stop-color="rgba(255,255,255,0.90)"/>
      <stop offset="60%"  stop-color="rgba(255,255,255,0.30)"/>
      <stop offset="100%" stop-color="rgba(255,255,255,0)"/>
    </radialGradient>
    <radialGradient id="s2" cx="50%" cy="50%" r="50%">
      <stop offset="0%"   stop-color="rgba(255,255,255,0.70)"/>
      <stop offset="100%" stop-color="rgba(255,255,255,0)"/>
    </radialGradient>
    <clipPath id="clip"><circle cx="256" cy="256" r="210"/></clipPath>
  </defs>

  <circle cx="256" cy="256" r="210" fill="url(#body)"/>
  <circle cx="256" cy="256" r="210" fill="url(#rim)"/>

  <ellipse cx="183" cy="168" rx="66" ry="46" transform="rotate(-28 183 168)" fill="url(#s1)"/>
  <ellipse cx="160" cy="192" rx="22" ry="14" transform="rotate(-28 160 192)" fill="url(#s2)" opacity="0.65"/>

  <!-- stem -->
  <rect x="250" y="30" width="12" height="28" rx="5" fill="#5c3317"/>
  <!-- small leaf -->
  <ellipse cx="270" cy="40" rx="19" ry="9" transform="rotate(-32 270 40)" fill="#4d7c0f"/>
  <path d="M 264 46 Q 272 37 280 43" stroke="#15803d" stroke-width="2.5" fill="none"/>
  <circle cx="210" cy="286" r="22" fill="#2a0e00"/>
  <circle cx="217" cy="278" r="8" fill="white"/>
  <circle cx="302" cy="286" r="22" fill="#2a0e00"/>
  <circle cx="309" cy="278" r="8" fill="white"/>
  <path d="M 220 322 Q 256 352 292 322" stroke="#2a0e00" stroke-width="9" fill="none" stroke-linecap="round"/>

</svg>