<svg xmlns="http://www.w3.org/2000/svg" viewBox="0 0 512 512" width="512" height="512">
  <defs>
    <radialGradient id="body" cx="37%" cy="30%" r="68%" fx="37%" fy="30%">
      <stop offset="0%"   stop-color="#fde8c8"/>
      <stop offset="35%"  stop-color="#f97316"/>
      <stop offset="75%"  stop-color="#c2410c"/>
      <stop offset="100%" stop-color="#7c2d12"/>
    </radialGradient>
    <radialGradient id="rim" cx="50%" cy="50%" r="50%">
      <stop offset="70%" stop-color="rgba(0,0,0,0)"/>
      <stop offset="100%" stop-color="rgba(0,0,0,0.32)"/>
    </radialGradient>
    <radialGradient id="s1" cx="50%" cy="50%" r="50%">
      <stop offset="0%"   stop-color="rgba(255,255,255,0.90)"/>
      <stop offset="60%"  stop-color="rgba(255,255,255,0.30)"/>
      <stop offset="100%" stop-color="rgba(255,255,255,0)"/>
    </radialGradient>
    <radialGradient id="s2" cx="50%" cy="50%" r="50%">
      <stop offset="0%"   stop-color="rgba(255,255,255,0.70)"/>
      <stop offset="100%" stop-color="rgba(255,255,255,0)"/>
    </radialGradient>
    <clipPath id="clip"><circle cx="256" cy="256" r="210"/></clipPath>
  </defs>

  <circle cx="256" cy="256" r="210" fill="url(#body)"/>
  <circle cx="256" cy="256" r="210" fill="url(#rim)"/>

  <ellipse cx="183" cy="168" rx="66" ry="46" transform="rotate(-28 183 168)" fill="url(#s1)"/>
  <ellipse cx="160" cy="192" rx="22" ry="14" transform="rotate(-28 160 192)" fill="url(#s2)" opacity="0.65"/>

  <!-- horizontal band stripes (clipped) -->
  <g clip-path="url(#clip)">
    <rect x="0" y="190" width="512" height="38" fill="rgba(124,45,18,0.28)"/>
    <rect x="0" y="270" width="512" height="28" fill="rgba(124,45,18,0.22)"/>
    <rect x="0" y="320" width="512" height="20" fill="rgba(124,45,18,0.18)"/>
    <rect x="0" y="150" width="512" height="18" fill="rgba(124,45,18,0.15)"/>
    <!-- Great Red Spot -->
    <ellipse cx="340" cy="300" rx="50" ry="32" transform="rotate(-8 340 300)" fill="rgba(185,28,28,0.65)"/>
    <ellipse cx="340" cy="300" rx="34" ry="22" transform="rotate(-8 340 300)" fill="rgba(220,38,38,0.45)"/>
  </g>
  <path d="M 194 282 Q 210 268 226 282" stroke="#7c2d12" stroke-width="8" fill="none" stroke-linecap="round"/>
  <path d="M 286 282 Q 302 268 318 282" stroke="#7c2d12" stroke-width="8" fill="none" stroke-linecap="round"/>
  <path d="M 220 318 Q 256 346 292 318" stroke="#7c2d12" stroke-width="8" fill="none" stroke-linecap="round"/>
  <ellipse cx="185" cy="308" rx="24" ry="15" fill="rgba(255,130,130,0.38)"/>
  <ellipse cx="327" cy="308" rx="24" ry="15" fill="rgba(255,130,130,0.38)"/>

</svg>