<svg xmlns="http://www.w3.org/2000/svg" viewBox="0 0 512 512" width="512" height="512">
  <defs>
    <radialGradient id="body" cx="37%" cy="30%" r="68%" fx="37%" fy="30%">
      <stop offset="0%"   stop-color="#fecaca"/>
      <stop offset="35%"  stop-color="#f87171"/>
      <stop offset="75%"  stop-color="#dc2626"/>
      <stop offset="100%" stop-color="#7f1d1d"/>
    </radialGradient>
    <radialGradient id="rim" cx="50%" cy="50%" r="50%">
      <stop offset="70%" stop-color="rgba(0,0,0,0)"/>
      <stop offset="100%" stop-color="rgba(0,0,0,0.32)"/>
    </radialGradient>
    <radialGradient id="s1" cx="50%" cy="50%" r="50%">
      <stop offset="0%"   stop-color="rgba(255,255,255,0.90)"/>
      <stop offset="60%"  stop-color="rgba(255,255,255,0.30)"/>
      <stop offset="100%" stop-color="rgba(255,255,255,0)"/>
    </radialGradient>
    <radialGradient id="s2" cx="50%" cy="50%" r="50%">
      <stop offset="0%"   stop-color="rgba(255,255,255,0.70)"/>
      <stop offset="100%" stop-color="rgba(255,255,255,0)"/>
    </radialGradient>
    <clipPath id="clip"><circle cx="256" cy="256" r="210"/></clipPath>
  </defs>

  <circle cx="256" cy="256" r="210" fill="url(#body)"/>
  <circle cx="256" cy="256" r="210" fill="url(#rim)"/>

  <ellipse cx="183" cy="168" rx="66" ry="46" transform="rotate(-28 183 168)" fill="url(#s1)"/>
  <ellipse cx="160" cy="192" rx="22" ry="14" transform="rotate(-28 160 192)" fill="url(#s2)" opacity="0.65"/>

  <!-- polar ice cap -->
  <g clip-path="url(#clip)">
    <ellipse cx="256" cy="72" rx="66" ry="38" fill="rgba(255,255,255,0.75)"/>
    <ellipse cx="256" cy="72" rx="48" ry="26" fill="rgba(255,255,255,0.55)"/>
    <!-- dust storm band -->
    <path d="M 46 310 Q 256 295 466 310" stroke="rgba(253,186,116,0.30)" stroke-width="22" fill="none"/>
  </g>
  <path d="M 194 282 Q 210 268 226 282" stroke="#7f1d1d" stroke-width="8" fill="none" stroke-linecap="round"/>
  <path d="M 286 282 Q 302 268 318 282" stroke="#7f1d1d" stroke-width="8" fill="none" stroke-linecap="round"/>
  <path d="M 220 318 Q 256 346 292 318" stroke="#7f1d1d" stroke-width="8" fill="none" stroke-linecap="round"/>
  <ellipse cx="185" cy="308" rx="24" ry="15" fill="rgba(255,130,130,0.38)"/>
  <ellipse cx="327" cy="308" rx="24" ry="15" fill="rgba(255,130,130,0.38)"/>

</svg>