<svg xmlns="http://www.w3.org/2000/svg" viewBox="0 0 512 512" width="512" height="512">
  <defs>
    <radialGradient id="body" cx="37%" cy="30%" r="68%" fx="37%" fy="30%">
      <stop offset="0%"   stop-color="#fef9c3"/>
      <stop offset="35%"  stop-color="#fde047"/>
      <stop offset="75%"  stop-color="#ca8a04"/>
      <stop offset="100%" stop-color="#78350f"/>
    </radialGradient>
    <radialGradient id="rim" cx="50%" cy="50%" r="50%">
      <stop offset="70%" stop-color="rgba(0,0,0,0)"/>
      <stop offset="100%" stop-color="rgba(0,0,0,0.32)"/>
    </radialGradient>
    <radialGradient id="s1" cx="50%" cy="50%" r="50%">
      <stop offset="0%"   stop-color="rgba(255,255,255,0.90)"/>
      <stop offset="60%"  stop-color="rgba(255,255,255,0.30)"/>
      <stop offset="100%" stop-color="rgba(255,255,255,0)"/>
    </radialGradient>
    <radialGradient id="s2" cx="50%" cy="50%" r="50%">
      <stop offset="0%"   stop-color="rgba(255,255,255,0.70)"/>
      <stop offset="100%" stop-color="rgba(255,255,255,0)"/>
    </radialGradient>
    <clipPath id="clip"><circle cx="256" cy="256" r="210"/></clipPath>
  </defs>

  <circle cx="256" cy="256" r="210" fill="url(#body)"/>
  <circle cx="256" cy="256" r="210" fill="url(#rim)"/>

  <ellipse cx="183" cy="168" rx="66" ry="46" transform="rotate(-28 183 168)" fill="url(#s1)"/>
  <ellipse cx="160" cy="192" rx="22" ry="14" transform="rotate(-28 160 192)" fill="url(#s2)" opacity="0.65"/>

  <!-- thick cloud swirl bands -->
  <g clip-path="url(#clip)" opacity="0.38">
    <path d="M 46 180 Q 180 156 256 180 Q 332 204 466 180"
          stroke="#78350f" stroke-width="18" fill="none"/>
    <path d="M 46 240 Q 160 220 256 244 Q 352 268 466 240"
          stroke="#78350f" stroke-width="14" fill="none"/>
    <path d="M 46 310 Q 200 290 256 312 Q 312 334 466 310"
          stroke="#78350f" stroke-width="18" fill="none"/>
    <path d="M 46 370 Q 180 355 256 372 Q 332 389 466 370"
          stroke="#78350f" stroke-width="12" fill="none"/>
  </g>
  <path d="M 194 282 Q 210 268 226 282" stroke="#78350f" stroke-width="8" fill="none" stroke-linecap="round"/>
  <path d="M 286 282 Q 302 268 318 282" stroke="#78350f" stroke-width="8" fill="none" stroke-linecap="round"/>
  <path d="M 220 318 Q 256 346 292 318" stroke="#78350f" stroke-width="8" fill="none" stroke-linecap="round"/>
  <ellipse cx="185" cy="308" rx="24" ry="15" fill="rgba(255,130,130,0.38)"/>
  <ellipse cx="327" cy="308" rx="24" ry="15" fill="rgba(255,130,130,0.38)"/>

</svg>